<svg width="375" height="203" viewBox="0 0 375 203" fill="none" xmlns="http://www.w3.org/2000/svg">
<path fill-rule="evenodd" clip-rule="evenodd" d="M0.00254707 196.617L0.00254707 186.065C2.79014 183.275 5.57264 180.476 8.3755 177.654L22.2753 163.758L22.4534 163.572L22.4267 163.528L24.0832 161.876C24.6748 161.268 25.302 160.634 25.8415 160.122L86.4929 99.5872C85.8936 98.1101 82.7116 95.9828 81.7816 94.5299C80.4457 95.2106 79.0881 96.9549 78.0817 98.0363L72.2801 103.736C71.406 104.581 70.7915 105.341 69.9098 106.157C69.3844 106.643 69.2024 106.93 68.7915 107.338C68.3424 107.782 68.0892 107.921 67.6006 108.45C66.0815 110.094 64.4682 111.422 63.0115 113.062L60.6056 115.448C60.1463 115.862 59.9961 116.109 59.4732 116.618L56.0062 120.05C55.5495 120.471 55.4121 120.724 54.8612 121.207C54.2161 121.772 54.2797 121.742 53.7136 122.365C53.2097 122.92 52.8039 123.196 52.454 123.595C51.9374 124.182 51.8446 124.305 51.3407 124.777L30.4535 145.684C28.1558 148.007 17.6861 158.501 11.574 164.525C11.6071 164.58 11.6326 164.629 11.6478 164.671C10.1847 165.612 5.19476 171.015 3.54587 172.636L0 176.182L0 165.346C1.67942 163.664 3.26216 162.096 4.44539 160.963L76.1758 89.1914C75.7547 88.4267 74.9201 87.7613 74.303 87.1888L72.4849 85.3694C72.0511 84.8439 71.9976 84.7053 71.3399 84.2893C67.7418 87.6596 64.271 91.4026 60.7379 94.8798C50.0672 105.381 39.726 116.154 29.012 126.608C19.2345 136.149 9.61343 145.85 0.00127353 155.553L0.00127353 144.89L2.54331 142.31C6.11335 138.689 9.64651 135.312 13.1898 131.678C23.6315 120.974 34.5083 110.698 44.9297 99.9677L60.7366 84.1442C61.6501 83.2116 62.5293 82.4241 63.4313 81.4724C64.2176 80.6416 65.4085 79.7383 65.9263 78.84C65.4352 78.1873 65.266 78.2039 64.7354 77.5907C64.2723 77.0538 64.0395 76.9736 63.5458 76.48L61.2442 73.999C60.3994 74.4061 58.8574 76.2178 58.1348 76.9443C54.0685 81.0309 24.5348 110.604 0 135.113L0 124.394C0.777369 123.59 1.45677 122.856 1.73286 122.544C1.57255 122.322 0.947856 121.651 0 120.672L0 110.068C2.63619 112.752 5.50902 115.656 7.12228 117.121C8.05869 116.488 41.5454 82.7816 43.6612 80.6811C44.6574 79.6912 55.2797 69.3767 55.692 68.4047C54.4248 67.5459 51.8255 64.6934 50.5786 63.3715L44.1485 56.9553C43.7935 56.6347 43.6854 56.6055 43.3469 56.2289C43.0709 55.9222 43.0072 55.8116 42.7146 55.5151L18.9915 31.8925C18.7014 31.6024 18.6009 31.4281 18.3681 31.1762L9.80808 22.7791C9.48492 22.9547 4.89959 27.4853 0.00127353 32.3709L0.00127353 21.9368C7.63247 14.2967 15.2497 6.64514 22.8783 -0.994965H37.8137C45.3508 6.76474 70.9353 32.1024 71.5981 32.7678L102.354 63.5038L102.402 63.4567C103.496 64.042 110.081 70.9556 111.502 72.3755L169.885 130.732C171.252 132.098 172.89 133.953 174.322 135.122L179.224 130.288C177.603 128.533 175.852 126.886 174.122 125.151L158.708 109.707C151.864 102.79 145.008 96.1432 138.168 89.227C131.335 82.321 124.578 75.5283 117.653 68.7151C116.838 67.9149 107.893 59.1335 102.122 53.267C101.067 52.6537 99.0644 50.3623 98.189 49.501C93.0986 44.506 62.1132 13.2331 47.7402 -0.993668H58.3167C59.8867 0.545807 61.0585 1.68707 61.3626 1.98479C66.5662 7.08414 71.5027 12.2178 76.6988 17.321C77.8082 18.4126 94.0388 34.4295 102.436 42.9767C104.418 44.4131 141.766 82.0806 143.527 83.8618C153.727 94.1801 164.133 104.277 174.311 114.612C177.696 118.047 181.181 121.281 184.467 124.794C185.253 124.471 188.71 120.8 189.428 119.987C188.388 118.534 167.571 98.0503 166.377 96.862C158.622 89.1316 151.004 81.5309 143.266 73.775C129.622 60.0979 116.057 46.3177 102.279 32.7691L102.237 32.8086C101.078 32.2055 91.0667 21.8401 89.2855 20.0665L68.2151 -0.994965H78.9456L102.372 22.4216C107.848 16.9456 116.722 8.02557 125.715 -0.994965H136.521C133.701 1.87024 130.902 4.75453 127.995 7.53957C121.164 14.0868 114.555 20.9864 107.87 27.6494L112.776 32.5477C114.1 31.4116 115.493 29.8441 116.803 28.5451C118.195 27.1647 119.434 25.928 120.824 24.5285L144.888 0.474564L146.38 -0.994965H157.087L150.158 5.93523C144.824 11.3297 139.542 16.592 134.149 21.933L122.06 34.0007C120.933 35.1228 119.06 36.7806 118.172 37.9524L123.126 42.7643C135.704 30.4599 147.827 17.9546 160.349 5.58156C162.573 3.38431 164.777 1.19595 166.972 -0.993668H177.524C167.327 9.18466 157.186 19.419 147.009 29.6189C144.597 32.0375 130.686 46.2198 128.48 48.1028C128.821 48.8165 132.486 52.2606 133.284 53.0545C134.533 52.2059 153.568 32.9103 154.515 31.9536C161.58 24.8198 168.57 17.849 175.702 10.775L187.475 -0.993668H198.15L191.584 5.57262C181.071 16.1823 170.009 26.8377 159.867 37.3086C152.745 44.6625 145.722 51.3446 138.694 58.4745L143.6 63.355C145.595 61.5687 147.583 59.4032 149.534 57.4528L167.374 39.6306C180.988 26.1494 194.49 12.5639 208.018 -0.993668H228.012C237.54 8.66557 258.688 29.61 259.292 30.2118L293.786 64.6858C295.016 65.4364 301.436 72.1758 302.837 73.574L361.219 131.93C362.585 133.297 364.226 135.153 365.655 136.323L370.557 131.489C368.936 129.732 367.184 128.085 365.458 126.35L350.041 110.906C343.198 103.988 336.343 97.3417 329.502 90.4255C322.669 83.5195 315.911 76.7267 308.986 69.9136C307.964 68.9098 294.146 55.3472 289.852 50.7351C288.81 50.1575 286.767 47.8177 285.877 46.9462C281.074 42.2311 253.211 14.1148 238.009 -0.993668H248.618L249.051 -0.569977C254.257 4.52809 259.19 9.66176 264.386 14.7649C265.698 16.0537 288.022 38.0873 293.748 44.1638C295.446 45.3037 333.092 83.2727 334.861 85.0603C345.06 95.3786 355.466 105.475 365.646 115.81C368.756 118.968 371.952 121.955 375 125.146V137.776C358.676 154.078 345.476 167.225 345.129 167.461C344.133 166.993 339.017 161.536 337.918 160.405C334.348 156.726 327.371 149.637 323.723 146.233C321.736 144.378 318.555 141.213 316.725 139.236L311.368 133.862C310.687 133.18 310.214 132.719 309.658 132.12L299.004 121.497C298.303 120.794 297.878 120.336 297.203 119.651L292.788 115.252C292.17 114.593 290.875 113.486 289.874 112.462C286.078 116.252 281.415 120.768 280.303 121.889C270.443 131.84 260.607 141.823 250.585 151.605C249.053 153.1 244.13 157.924 240.32 161.743C240.362 161.796 240.398 161.839 240.422 161.875C240.053 162.447 239.554 162.706 239.131 163.15C238.895 163.396 238.753 163.623 238.509 163.868L229.838 172.451C227.31 175.229 224.589 177.831 221.933 180.454L208.705 193.681C205.858 196.555 202.971 199.432 200.072 202.308H189.375L192.825 198.884L224.554 167.164C226.362 165.369 228.031 163.689 229.83 161.9C230.117 161.614 230.403 161.324 230.689 161.033L230.665 160.992L284.414 107.146C283.363 105.849 281.518 104.123 280.198 102.857L279.549 102.281C278.499 102.861 276.4 105.266 275.396 106.253C274.004 107.622 272.75 108.88 271.376 110.282C258.78 123.104 245.957 135.546 233.31 148.321C231.977 149.67 222.144 159.689 217.553 164.178L210.638 171.271C200.177 181.541 189.824 191.919 179.485 202.308H168.819C171.688 199.432 174.567 196.557 177.468 193.691C183.743 187.49 189.855 181.357 196.068 175.103L209.967 161.207L210.145 161.021L210.119 160.977L211.791 159.309C212.375 158.708 212.992 158.083 213.526 157.578L274.186 97.0338C273.586 95.5579 270.402 93.4307 269.474 91.9764C268.138 92.6584 266.78 94.4027 265.773 95.4829L259.972 101.183C259.097 102.026 258.486 102.787 257.604 103.603C257.079 104.089 256.897 104.376 256.484 104.783C256.034 105.229 255.784 105.367 255.293 105.897C253.775 107.538 252.159 108.869 250.704 110.509L248.298 112.893C247.838 113.308 247.688 113.556 247.165 114.065L243.698 117.496C243.244 117.917 243.104 118.168 242.553 118.651C241.908 119.219 241.972 119.187 241.407 119.809C240.903 120.365 240.499 120.64 240.147 121.041C239.631 121.626 239.539 121.751 239.034 122.223L218.147 143.128C215.849 145.451 205.379 155.946 199.27 161.968C199.302 162.022 199.326 162.072 199.344 162.114C197.878 163.054 192.888 168.459 191.239 170.08L167.274 194.045C164.525 196.825 161.791 199.57 159.046 202.308H148.277L162.006 188.584C167.418 183.263 172.655 177.96 178.025 172.584C179.121 171.486 188 162.377 192.117 158.428L263.871 86.6341C263.448 85.8707 262.612 85.2066 261.995 84.6315L260.176 82.8108C259.743 82.2854 259.688 82.148 259.033 81.7319C255.434 85.1035 251.963 88.844 248.429 92.3238C237.758 102.824 227.417 113.598 216.703 124.051C205.998 134.495 195.482 145.133 184.959 155.754C183.173 157.557 181.494 159.239 179.684 161.026C179.439 161.267 179.066 161.655 178.624 162.113C178.588 162.167 178.556 162.18 178.37 162.391L177.922 162.84C177.095 163.695 176.166 164.647 175.427 165.338L165.343 175.435C163.071 177.711 160.923 179.893 158.623 182.134C154.051 186.581 149.716 191.238 145.11 195.65C142.829 197.837 140.572 200.064 138.329 202.308H127.693C141.1 188.855 160.723 169.12 169.316 160.699C170.942 158.758 178.549 151.397 179.691 150.293C183.275 146.83 186.72 143.315 190.234 139.752C193.804 136.131 197.336 132.755 200.881 129.121C211.322 118.416 222.197 108.138 232.619 97.4091L248.426 81.5843C249.34 80.6517 250.22 79.8655 251.121 78.9125C251.91 78.0843 253.101 77.181 253.616 76.2815C253.125 75.6275 252.956 75.644 252.425 75.0308C251.962 74.4939 251.729 74.4137 251.235 73.9213L248.935 71.4391C248.093 71.8475 246.548 73.6605 245.826 74.3845C238.754 81.4915 154.679 165.66 153.793 166.263C152.797 165.795 147.679 160.338 146.582 159.207C143.012 155.527 136.035 148.438 132.387 145.035C130.398 143.178 127.218 140.013 125.389 138.037L120.029 132.663C119.351 131.981 118.876 131.518 118.32 130.919L107.666 120.299C106.965 119.595 106.54 119.139 105.863 118.453L102.296 114.898C98.4817 118.712 93.7335 123.312 92.6088 124.444C82.7485 134.395 72.9124 144.378 62.8906 154.16C61.3588 155.656 56.4337 160.479 52.6232 164.3C52.6677 164.352 52.7008 164.396 52.7275 164.432C52.3586 165.003 51.8598 165.263 51.4362 165.704C51.1995 165.951 51.0583 166.178 50.814 166.423L42.1433 175.006C39.6153 177.786 36.8939 180.387 34.2386 183.01L21.0106 196.238C19.0068 198.26 16.9825 200.284 14.9481 202.308H4.25455L5.12988 201.439L36.8595 169.718C38.6649 167.926 40.3367 166.246 42.1344 164.455C42.422 164.169 42.7095 163.879 42.9945 163.589L42.9691 163.547L96.7183 109.701C95.6674 108.406 93.8238 106.679 92.5032 105.412L91.853 104.835C90.8047 105.417 88.7054 107.82 87.7015 108.808C86.3097 110.179 85.0552 111.435 83.6798 112.837C71.0867 125.659 58.262 138.101 45.6154 150.877C44.2821 152.227 34.432 162.265 29.8467 166.748L22.9445 173.827C15.2509 181.38 7.61593 188.992 0.00127353 196.624L0.00254707 196.617ZM0.00254707 12.0269L0.00254707 1.33716L2.33974 -0.998749H13.0143L3.89321 8.12228C2.60438 9.42384 1.30664 10.7254 0.00254707 12.0282V12.0269ZM258.459 -1H269.189L293.758 23.5602C299.483 17.8362 308.875 8.39206 318.238 -1H329.033C325.811 2.25706 322.636 5.55865 319.325 8.73303C312.495 15.2802 305.887 22.1824 299.201 28.8441L304.104 33.7411C305.427 32.6062 306.822 31.0375 308.131 29.741C309.525 28.3593 310.765 27.1227 312.153 25.7231L336.217 1.66927C337.121 0.779938 338.022 -0.109421 338.919 -0.998749H349.614L341.487 7.12862C336.152 12.5244 330.871 17.7854 325.477 23.1264L313.391 35.1941C312.262 36.3163 310.388 37.974 309.503 39.1458L314.456 43.9576C327.033 31.6533 339.157 19.1492 351.679 6.7762C354.309 4.17691 356.909 1.59036 359.502 -0.998749H370.055C359.451 9.57526 348.914 20.2129 338.339 30.8136C335.927 33.231 322.014 47.4131 319.809 49.2949C320.15 50.0112 323.816 53.4528 324.613 54.2467C325.863 53.4006 344.898 34.1025 345.845 33.1483C352.91 26.0133 359.902 19.0437 367.034 11.9697L374.997 4.00896V14.6822C366.96 22.662 358.819 30.6329 351.199 38.5008C344.074 45.8572 337.051 52.538 330.025 59.6679L334.93 64.5484C336.925 62.7621 338.913 60.5966 340.866 58.6488L358.704 40.824C364.151 35.4308 369.579 30.021 374.997 24.6035V35.0351C371.703 38.3341 368.777 41.2794 367.52 42.5517C366.964 43.1154 366.548 43.5225 365.986 44.0861C365.509 44.5645 365.091 45.0988 364.594 45.5709C362.366 47.6791 360.484 49.7415 358.455 51.7008L349.349 60.8065C346.245 63.9682 343.525 66.2303 340.352 69.808C340.674 70.5727 350.334 79.9456 351.76 81.3859L374.767 104.384L374.997 104.615V115.219C368.426 108.617 358.52 98.8659 357.708 98.0567C349.952 90.3263 342.335 82.7256 334.597 74.9697C320.21 60.5483 305.911 46.015 291.358 31.7538C290.816 31.222 289.966 30.5006 289.32 29.7894C286.834 27.6494 278.573 19.1022 276.971 17.508L258.457 -0.997513L258.459 -1ZM374.999 147.579V158.249C373.677 159.577 372.385 160.866 371.019 162.218C370.773 162.46 370.401 162.847 369.959 163.305C369.922 163.36 369.89 163.372 369.707 163.585L369.226 164.066C368.412 164.909 367.501 165.838 366.776 166.52L356.679 176.626C354.407 178.902 352.262 181.084 349.959 183.324C345.387 187.772 341.053 192.429 336.446 196.841C334.572 198.639 332.713 200.462 330.866 202.301H320.223C333.573 188.902 352.305 170.073 360.649 161.894C362.266 159.961 369.885 152.591 371.027 151.487C372.366 150.19 373.687 148.889 375 147.579H374.999ZM374.999 168.042V178.845L358.608 195.238C356.26 197.612 353.922 199.961 351.581 202.302H340.808L353.338 189.776C358.75 184.455 363.987 179.153 369.357 173.777C369.888 173.244 372.243 170.834 374.999 168.043V168.042ZM374.999 188.729V199.298L372.009 202.301H361.346C363.819 199.825 366.301 197.35 368.8 194.882C370.882 192.826 372.944 190.777 375 188.728L374.999 188.729ZM301.507 202.302H290.778L261.976 173.514C260.701 172.222 256.816 167.975 255.593 167.224L250.798 171.926C251.266 173.025 265.012 186.398 266.171 187.534C271.182 192.444 275.945 197.386 280.929 202.302H270.331C257.543 189.484 245.835 177.809 245.256 177.523L240.562 182.34C240.856 182.88 250.908 192.95 260.294 202.301H249.646L235.131 187.799C234.236 188.344 230.675 191.828 230.297 192.69C230.794 193.392 235.138 197.76 239.708 202.301L229.276 202.301C227.395 200.391 225.316 198.35 224.735 198.052L220.48 202.301H209.986C221.293 190.967 232.581 179.619 243.935 168.333C244.649 167.624 254.855 157.007 255.849 156.658L301.509 202.301L301.507 202.302ZM111.261 202.302H100.531L74.2865 176.069C73.0117 174.778 69.1261 170.53 67.9034 169.78L63.1069 174.479C63.5738 175.58 77.3209 188.953 78.4787 190.088C82.6238 194.148 86.5972 198.229 90.6672 202.301H80.0907C68.336 190.527 58.1055 180.343 57.5661 180.077L52.8726 184.894C53.1398 185.387 61.4733 193.757 70.0396 202.301H59.3982L47.4412 190.356C46.5467 190.898 42.9843 194.383 42.6065 195.247C43.0085 195.814 45.931 198.784 49.4527 202.301H39.0097C38.0987 201.428 37.357 200.767 37.0466 200.607L35.3506 202.301H24.8466C35.301 191.818 45.7465 181.327 56.2467 170.889C56.9604 170.18 67.1668 159.566 68.1604 159.216L111.262 202.302H111.261ZM102.291 104.645C95.689 98.1228 85.0246 87.3198 84.302 86.5781C76.6631 78.7433 68.9073 71.2482 61.201 63.4809C57.332 59.5813 53.6054 55.8472 49.7059 51.9718L20.9406 23.2307C19.9063 22.1824 15.5754 18.1391 15.1823 17.237L19.9253 12.499C20.933 13.0193 26.4458 18.7739 27.6138 20.0017C30.9688 23.531 34.4803 26.6507 37.8697 30.2615L50.071 42.408C50.3751 42.7184 50.4222 42.8367 50.6944 43.123L91.7245 84.1353C93.1953 85.6124 100.907 92.9662 101.931 94.4001C101.986 94.3734 102.062 94.3187 102.157 94.2449L117.333 109.479C117.677 109.822 117.957 109.992 118.328 110.402C118.952 111.09 119.505 111.568 120.215 112.347L133.664 125.737C134.286 126.419 134.84 126.903 135.551 127.683L145.135 137.27C145.909 137.975 146.404 138.535 147.084 139.155L154.751 146.822C155.38 147.392 158.277 150.244 158.6 150.847C157.702 151.718 154.39 155.282 153.592 155.648L102.47 104.466L102.29 104.647L102.291 104.645ZM102.399 84.0208C91.8441 73.326 67.9607 49.6766 66.4988 48.2083C59.6361 41.3125 52.8255 34.6266 45.9844 27.7105C44.6409 26.3517 26.5311 8.61725 25.4865 7.14012C25.8644 6.27623 29.4268 2.79265 30.3212 2.24937L101.992 73.8475C102.039 73.8284 102.091 73.8068 102.141 73.7839C111.789 83.6276 132.361 103.954 132.977 104.57L159.912 131.501C162.921 134.501 166.005 137.448 168.905 140.495L164.021 145.402C158.764 140.485 153.798 135.147 148.667 130.093L117.897 99.3302C116.574 98.002 103.615 84.704 102.427 83.9979L102.399 84.0221V84.0208ZM197.499 20.2179L206.059 28.6151C206.292 28.867 206.395 29.0426 206.682 29.3326L230.405 52.9552C230.701 53.2517 230.763 53.3624 231.04 53.6691C231.38 54.0431 231.486 54.0749 231.841 54.3942L238.271 60.8104C239.518 62.1298 242.118 64.9835 243.387 65.8436C242.974 66.8156 232.351 77.1275 231.355 78.1173C229.237 80.2179 195.752 113.925 194.816 114.558C192.205 112.191 186.309 106.061 183.436 103.185L160.427 80.1874C159.002 78.7471 149.34 69.3742 149.021 68.6095C152.194 65.0306 154.914 62.7697 158.018 59.6081L167.124 50.5023C169.152 48.5417 171.035 46.4806 173.262 44.3724C173.761 43.8991 174.179 43.3647 174.656 42.8876C175.216 42.324 175.632 41.9156 176.188 41.3532C179.766 37.731 196.867 20.564 197.5 20.2179H197.499ZM293.726 105.74C288.823 101.08 272.882 84.9368 271.992 84.0233C264.353 76.1885 256.597 68.6923 248.891 60.9237C245.022 57.0241 241.298 53.2911 237.395 49.417L208.63 20.6734C207.596 19.6276 203.265 15.5843 202.872 14.6797L207.615 9.94418C208.624 10.4633 214.135 16.2179 215.303 17.4469C218.658 20.9762 222.17 24.0947 225.559 27.7067L237.761 39.852C238.065 40.1649 238.112 40.2833 238.384 40.5695L279.414 81.5792C280.885 83.0589 288.597 90.409 289.62 91.8454C289.665 91.8225 289.723 91.7843 289.792 91.7322L308.668 110.678C309.013 111.02 309.29 111.191 309.662 111.6C310.285 112.289 310.838 112.767 311.548 113.546L324.996 126.935C325.619 127.62 326.172 128.102 326.883 128.883L336.467 138.467C337.241 139.175 337.737 139.732 338.417 140.353L346.083 148.02C346.712 148.59 349.61 151.441 349.933 152.043C349.034 152.914 345.721 156.48 344.924 156.844L293.802 105.662L293.725 105.74H293.726ZM293.744 85.2091C286.983 78.1479 255.861 47.333 254.188 45.6536C247.326 38.7578 240.516 32.0719 233.676 25.1532C232.332 23.7943 214.222 6.06117 213.177 4.58405C213.555 3.72015 217.118 0.235367 218.012 -0.306641L289.683 71.2903C289.736 71.2686 289.791 71.2457 289.843 71.2216C296.132 77.9227 323.599 105.054 324.312 105.768L351.248 132.7C354.255 135.7 357.338 138.647 360.24 141.694L355.356 146.601C350.099 141.684 345.133 136.345 340.003 131.293L309.231 100.527C307.91 99.1992 294.95 85.9013 293.76 85.1951L293.744 85.2091Z" fill="black" fill-opacity="0.101961"/>
</svg>
